{
  "accessors": [
    {
      "bufferView": 2,
      "componentType": 5126,
      "count": 55166,
      "max": [
        0.40759503841400146,
        0.25302115082740784,
        0.42672550678253174
      ],
      "min": [
        -0.40759506821632385,
        -0.25302115082740784,
        -0.42672550678253174
      ],
      "type": "VEC3"
    },
    {
      "bufferView": 2,
      "byteOffset": 661992,
      "componentType": 5126,
      "count": 55166,
      "max": [
        0.9999918937683105,
        0.9999843835830688,
        0.9998857975006104
      ],
      "min": [
        -0.9998760223388672,
        -0.9999963045120239,
        -0.9999604821205139
      ],
      "type": "VEC3"
    },
    {
      "bufferView": 1,
      "componentType": 5126,
      "count": 55166,
      "max": [
        0.9970394372940063,
        0.999946117401123
      ],
      "min": [
        0.00010077513434225693,
        0.00011576473480090499
      ],
      "type": "VEC2"
    },
    {
      "bufferView": 1,
      "byteOffset": 441328,
      "componentType": 5126,
      "count": 55166,
      "max": [
        0.9970394372940063,
        0.999946117401123
      ],
      "min": [
        0.00010077513434225693,
        0.00011576473480090499
      ],
      "type": "VEC2"
    },
    {
      "bufferView": 1,
      "byteOffset": 882656,
      "componentType": 5126,
      "count": 55166,
      "max": [
        0.9970394372940063,
        0.999946117401123
      ],
      "min": [
        0.00010077513434225693,
        0.00011576473480090499
      ],
      "type": "VEC2"
    },
    {
      "bufferView": 1,
      "byteOffset": 1323984,
      "componentType": 5126,
      "count": 55166,
      "max": [
        0.9970394372940063,
        0.999946117401123
      ],
      "min": [
        0.00010077513434225693,
        0.00011576473480090499
      ],
      "type": "VEC2"
    },
    {
      "bufferView": 1,
      "byteOffset": 1765312,
      "componentType": 5126,
      "count": 55166,
      "max": [
        0.9970394372940063,
        0.999946117401123
      ],
      "min": [
        0.00010077513434225693,
        0.00011576473480090499
      ],
      "type": "VEC2"
    },
    {
      "bufferView": 0,
      "componentType": 5125,
      "count": 300000,
      "type": "SCALAR"
    }
  ],
  "asset": {
    "extras": {
      "author": "aaa888 (https://sketchfab.com/aaa888)",
      "license": "CC-BY-NC-SA-4.0 (http://creativecommons.org/licenses/by-nc-sa/4.0/)",
      "source": "https://sketchfab.com/3d-models/chocolate-donut-c8d097a56a304d99b12e8dd3aab3b81c",
      "title": "Chocolate Donut"
    },
    "generator": "Sketchfab-13.74.0",
    "version": "2.0"
  },
  "bufferViews": [
    {
      "buffer": 0,
      "byteLength": 1200000,
      "name": "floatBufferViews",
      "target": 34963
    },
    {
      "buffer": 0,
      "byteLength": 2206640,
      "byteOffset": 1200000,
      "byteStride": 8,
      "name": "floatBufferViews",
      "target": 34962
    },
    {
      "buffer": 0,
      "byteLength": 1323984,
      "byteOffset": 3406640,
      "byteStride": 12,
      "name": "floatBufferViews",
      "target": 34962
    }
  ],
  "buffers": [
    {
      "byteLength": 4730624,
      "uri": "scene.bin"
    }
  ],
  "extensionsUsed": [
    "KHR_materials_unlit"
  ],
  "images": [
    {
      "uri": "textures/material_0_baseColor.jpeg"
    }
  ],
  "materials": [
    {
      "extensions": {
        "KHR_materials_unlit": {}
      },
      "name": "material_0",
      "pbrMetallicRoughness": {
        "baseColorTexture": {
          "index": 0
        },
        "metallicFactor": 0.0
      }
    }
  ],
  "meshes": [
    {
      "name": "Object_0",
      "primitives": [
        {
          "attributes": {
            "NORMAL": 1,
            "POSITION": 0,
            "TEXCOORD_0": 2,
            "TEXCOORD_1": 3,
            "TEXCOORD_2": 4,
            "TEXCOORD_3": 5,
            "TEXCOORD_4": 6
          },
          "indices": 7,
          "material": 0,
          "mode": 4
        }
      ]
    }
  ],
  "nodes": [
    {
      "children": [
        1
      ],
      "matrix": [
        1.0,
        0.0,
        0.0,
        0.0,
        0.0,
        2.220446049250313e-16,
        -1.0,
        0.0,
        0.0,
        1.0,
        2.220446049250313e-16,
        0.0,
        0.0,
        0.0,
        0.0,
        1.0
      ],
      "name": "Sketchfab_model"
    },
    {
      "children": [
        2
      ],
      "name": "root"
    },
    {
      "children": [
        3
      ],
      "matrix": [
        1.0,
        0.0,
        0.0,
        0.0,
        0.0,
        2.220446049250313e-16,
        1.0,
        0.0,
        0.0,
        -1.0,
        2.220446049250313e-16,
        0.0,
        0.0,
        0.0,
        0.0,
        1.0
      ],
      "name": "GLTF_SceneRootNode"
    },
    {
      "children": [
        4
      ],
      "name": "_0"
    },
    {
      "mesh": 0,
      "name": "Object_4"
    }
  ],
  "samplers": [
    {
      "magFilter": 9729,
      "minFilter": 9987,
      "wrapS": 10497,
      "wrapT": 10497
    }
  ],
  "scene": 0,
  "scenes": [
    {
      "name": "Sketchfab_Scene",
      "nodes": [
        0
      ]
    }
  ],
  "textures": [
    {
      "sampler": 0,
      "source": 0
    }
  ]
}
